# xmcd
#
# Track frame offsets:
#	150
#	22267
#	46472
#	61345
#	79867
#	86347
#	103374
#	119002
#	139154
#	152908
#	168226
#	193552
#	204885
#
# Disc length: 3020 seconds
#
# Revision: 1
# Processed by: cddbd v1.5.2PL0 Copyright (c) Steve Scherf et al.
# Submitted via: audiograbber 1.83.01
#
DISCID=b40bca0d
DTITLE=Uninvited Guest - Malice in wonderland
DYEAR=2008
DGENRE=Gothic Rock
TTITLE0=Mother nature made a monster
TTITLE1=Abigail
TTITLE2=Strange gothic romance
TTITLE3=The law of the playground
TTITLE4=Sombre defile
TTITLE5=Your private hell
TTITLE6=Join the dance
TTITLE7=Still I miss the man
TTITLE8=You are your kingdom
TTITLE9=Jack dandy
TTITLE10=Human
TTITLE11=Wonderland
TTITLE12=Double dare
EXTD=
EXTT0=
EXTT1=
EXTT2=
EXTT3=
EXTT4=
EXTT5=
EXTT6=
EXTT7=
EXTT8=
EXTT9=
EXTT10=
EXTT11=
EXTT12=
PLAYORDER=
